<svg xmlns="http://www.w3.org/2000/svg" width="100%" height="100%" viewBox="0 0 97.9800033569336 97.9800033569336"  xmlns:xlink="http://www.w3.org/1999/xlink" preserveAspectRatio="xMinYMin meet"><rect id="svgEditorBackground" x="0" y="0" width="97.9800033569336" height="97.9800033569336" style="fill:none;stroke:none"/>
  <style>
    .a {
      fill: #333;
    }
    @media (prefers-color-scheme: dark) {
      .a {
        fill: #eee;
      }
    }
  </style>
  <path class="a" d="M75.32,6.54c-.74,-2.18,-2,-2.8,-2.95,-2.93c-2.64,-.37,-5.64,2.73,-7,4.63a63.11,63.11,0,0,0,-5.9,10.45a106.735,106.735,0,0,0,-7.4319,22.9541a5.0231,5.0231,0,1,1,-5.7956,-3.4458c.713,-1.3732,-.2568,-1.7996,-1.2052,-5.6478a120.1653,120.1653,0,0,0,.9293,3.6978a2.2975,2.2975,0,1,0,.1063,.367a18.8178,18.8178,0,0,0,-1.8029,-5.9342a.5205,.5205,0,1,0,-.2794,.459a.2244,.2244,0,1,0,.3595,-.2068a6.92,6.92,0,0,0,-.85,-1.82a5.64,5.64,0,0,0,-3.3,-2.2c-2,-.49,-4.3,.2,-6.67,2c-3.56,2.68,-6.55,6.78,-8.87,12.2c-1.71,4,-3.53,9.25,-2.38,14.51c.42,1.94,1.43,4.47,3.82,5.51c2.78,1.2,5.6,-.5,7,-1.62a30.27,30.27,0,0,0,5.52,-6c.78,-1.07,1.48,-2.21,2.07,-3.22c.44,3.29,1.72,5.34,3.87,6.22a4.65,4.65,0,0,0,5.71,-1.14a124,124,0,0,0,-.18,15.54c.3,5.4,.68,12.13,2.88,18c1,2.74,2.58,5.95,5.52,6.44a4.44,4.44,0,0,0,.71,.6a3.48,3.48,0,0,0,2.09,-.68c1.75,-1.26,2.35,-4,2.64,-5.94c1,-6.23,-.44,-13,-2.09,-19.41a92.84,92.84,0,0,0,-3.48,-10.85c-.62,-1.56,-1.31,-3.21,-2.27,-5.36c-.1,-.24,-.22,-.48,-.1339,-.5411a10.2167,10.2167,0,0,0,1.1536,-.6356l-.9792,.5752l.1828,-.1076l.4461,-.2098a82.8441,82.8441,0,0,1,3.1826,-1.3377s2.1745,-.6797,6.0318,-2.5108a5.5256,5.5256,0,0,0,3.1246,-2.1993c-.9755,-.6736,-1.9828,-.6999,-2.9015,-.4536l-.7176,.1866a1.1856,1.1856,0,0,1,-1.0593,.3688l-1.1202,.504c-.9675,.3919,-2.8069,.6989,-3.9896,1.001c-.6323,.3781,-.9495,.5659,-1.4208,.799s-.4847,-.267,-.51,-.649l.8,-.8q.15,-.16,.3,-.36c.75,-1,1.42,-1.83,2,-2.75c1.3,-1.9,2.59,-4,4.18,-6.84a146.85,146.85,0,0,0,7,-14a79.53,79.53,0,0,0,2.88,-7.67l.18,-.58c.7,-2.14,1.65,-5.12,.86,-7.41ZM42,38.55a58.25,58.25,0,0,1,-7.07,12.45c-3.26,4.19,-5.54,5.5,-6.56,5.34c-.49,-.8,-.91,-.57,-1.23,-1.45c-1.59,-4.41,.32,-9.64,1.9,-13.2c2.34,-5.26,5,-8.76,8,-10.69a4.34,4.34,0,0,1,2.17,-.79a1.73,1.73,0,0,1,.47,.6a2,2,0,0,1,1.16,1.25a109.4682,109.4682,0,0,1,.7009,2.178c.2273,1.6483,.2491,2.532,.2991,3.242c0,.19,0,.39,.1637,.7621a51.7376,51.7376,0,0,0,-2.2701,5.3999ZM47.2454,51.3518c-.7827,.69,-1.4454,-.9018,-1.7254,-1.7318a15.3028,15.3028,0,0,1,.3293,-8.5124a56.8119,56.8119,0,0,0,-.9683,3.0305c.927,1.4292,1.449,-5.1181,1.539,-5.3281s-.1373,-.3946,-.2782,-.4618c.1673,.2,.201,1.5282,-.1814,-1.3951a7.4827,7.4827,0,0,0,.896,14.5073a6.634,6.634,0,1,0,5.5961,-11.8351l-.7942,6.1723c.527,-.3078,-1.198,1.7331,-.7943,1.1926a9.157,9.157,0,0,1,-1.077,1.5304l-.44,.6349a7.1779,7.1779,0,0,1,-.867,1.0245l-.28,.38c-.4,.56,-.52,.73,-1.13,.89ZM70.87,8.75v.19a31.12,31.12,0,0,1,-2.45,8.79l-.1,.25a92.25,92.25,0,0,1,-3.84,8.62c-1.5,2.94,-3.12,6.06,-4.88,9c-.77,1.31,-1.52,2.53,-2.28,3.72a83.56,83.56,0,0,1,5.18,-16.32a72.09,72.09,0,0,1,5,-9.84l.2,-.3a20.7,20.7,0,0,1,2.82,-3.8l.15,-.16ZM60,85.32l0,.4a14.47,14.47,0,0,1,-.65,3l0,.9a16.15,16.15,0,0,1,-2.35,-5.64a68.92,68.92,0,0,1,-1.73,-13.79c-.18,-4.12,-.17,-8.36,0,-12.64a55.8161,55.8161,0,0,1,3.0588,11.6581l.6012,1.6019a42.5,42.5,0,0,1,1.07,15.32ZM71.86,9ZM42,45.88Z" transform="matrix(1 0 0 1 11.4723 -17.5308)" id="e1_path"/>
</svg>